HIERARCHY
ROOT Hips
{
	OFFSET 0.00000 0.00000 0.00000
	CHANNELS 6 Xposition Yposition Zposition Yrotation Zrotation Xrotation 
	JOINT Lumbar
	{
		OFFSET 0 0 0
		CHANNELS 3 Zrotation Xrotation Yrotation
		JOINT Neck
		{
			OFFSET 0.00 0.2701 0.00
			CHANNELS 3 Zrotation Xrotation Yrotation
			End Site
			{
				OFFSET 0.00 0.1379 0.00
			}
		}
		JOINT RightShoulder
		{
			OFFSET 0.0119 0.2289 0.1181
			CHANNELS 3 Zrotation Xrotation Yrotation
			JOINT RightElbow
			{
				OFFSET 0.00 -0.1475 0.00
				CHANNELS 2 Zrotation Yrotation
				JOINT RightWrist
				{
					OFFSET 0.00 -0.1605 0.00
					CHANNELS 2 Zrotation Xrotation
					End Site
					{
						OFFSET 0.0040 -0.1068 0.0006
					}
				}
			}
		}
		JOINT LeftShoulder
		{
			OFFSET 0.0119 0.2289 -0.1181
			CHANNELS 3 Zrotation Xrotation Yrotation
			JOINT LeftElbow
			{
				OFFSET 0.00 -0.1475 0.00
				CHANNELS 2 Zrotation Yrotation
				JOINT LeftWrist
				{
					OFFSET 0.00 -0.1605 0.00
					CHANNELS 2 Zrotation Xrotation
					End Site
					{
						OFFSET 0.0040 -0.1068 -0.0006
					}
				}
			}
		}
	}
	JOINT RightHip
	{
		OFFSET 0.0316 -0.0424 0.0458
		CHANNELS 3 Zrotation Xrotation Yrotation
		JOINT RightKnee
		{
			OFFSET 0.00 -0.2438 0.00
			CHANNELS 1 Zrotation
			JOINT RightAnkle
			{
				OFFSET 0.00 -0.2449 0.00
				CHANNELS 3 Zrotation Xrotation Yrotation
				End Site
				{
					OFFSET 0.1237 -0.0542 0.0051
				}
			}
		}
	}
	JOINT LeftHip
	{
		OFFSET 0.0316 -0.0424 -0.0458
		CHANNELS 3 Zrotation Xrotation Yrotation
		JOINT LeftKnee
		{
			OFFSET 0.00 -0.2438 0.00
			CHANNELS 1 Zrotation
			JOINT LeftAnkle
			{
				OFFSET 0.00 -0.2449 0.00
				CHANNELS 3 Zrotation Xrotation Yrotation
				End Site
				{
					OFFSET 0.1237 -0.0542 -0.0051
				}
			}
		}
	}
}
MOTION
Frames: 33
Frame Time: 0.02
-0.00098 -3e-05 -3e-05 24.58085 -36.3251 -4.33915 55.20595 0.14924 0.27056 -12.48177 -0.14653 -1.97076 153.99247 -78.52737 -59.90754 16.40933 76.46219 2.21458 -5.85741 158.80446 73.70549 74.74907 11.9812 -74.90066 2.10749 7.40908 52.76798 0.85566 1.02444 -19.16482 -8.57614 -4.40389 -4.53821 55.28411 3.70949 12.62607 -24.16094 -7.71068 2.90409 3.71814
-0.00062 1e-05 -0.00066 24.61111 -36.25491 -4.36678 55.29845 0.10467 0.1566 -12.63545 -0.12875 -1.97122 154.49549 -78.53871 -59.31448 16.45571 76.45417 2.1607 -5.96596 158.77755 73.76809 74.70192 11.9938 -74.90006 2.10471 7.49639 52.5685 0.59265 -0.50842 -19.14416 -8.45185 -4.29553 -4.47285 55.15858 3.61714 12.29179 -24.16094 -7.71786 2.93932 3.73382
-0.00026 6e-05 -0.00129 24.64119 -36.18487 -4.39435 55.39078 0.06022 0.04298 -12.78876 -0.11103 -1.97168 154.99709 -78.55003 -58.72298 16.50192 76.44617 2.10695 -6.07416 158.75076 73.83055 74.65472 12.00632 -74.89947 2.1019 7.58341 52.36951 0.33045 -2.03656 -19.12359 -8.32794 -4.1875 -4.4077 55.03326 3.52513 11.95881 -24.16094 -7.72499 2.97443 3.74944
0.0001 0.00011 -0.00192 24.67134 -36.11488 -4.4219 55.48302 0.01578 -0.07064 -12.94199 -0.09331 -1.97214 155.49859 -78.56134 -58.1317 16.54814 76.43817 2.05323 -6.18237 158.72394 73.89297 74.60769 12.01887 -74.89887 2.09913 7.67045 52.17062 0.06825 -3.5647 -19.103 -8.20404 -4.07948 -4.34254 54.90809 3.43307 11.62558 -24.16094 -7.73215 3.00955 3.76507
0.00046 0.00016 -0.00255 24.7017 -36.0448 -4.44952 55.57538 -0.02876 -0.18459 -13.09553 -0.07552 -1.9726 156.00144 -78.57265 -57.53898 16.59456 76.43014 1.9994 -6.29093 158.69698 73.95549 74.56077 12.0315 -74.89828 2.09639 7.75778 51.9713 -0.19477 -5.09755 -19.08232 -8.07976 -3.97112 -4.27718 54.78277 3.34066 11.29101 -24.16094 -7.73936 3.04479 3.78076
0.00081 0.0002 -0.00318 24.73117 -35.97484 -4.47699 55.66765 -0.07301 -0.29751 -13.24834 -0.05796 -1.97305 156.50039 -78.584 -56.95008 16.64032 76.42223 1.9458 -6.39837 158.67056 74.01785 74.51301 12.04378 -74.89768 2.09342 7.84415 51.77302 -0.45523 -6.61569 -19.06197 -7.95664 -3.86382 -4.21245 54.65748 3.24947 10.96141 -24.16095 -7.7463 3.07962 3.79624
0.00117 0.00025 -0.00381 24.76241 -35.90469 -4.5047 55.75999 -0.11779 -0.41239 -13.40247 -0.03997 -1.97351 157.00663 -78.59526 -56.35413 16.68732 76.41408 1.89182 -6.50793 158.64308 74.08046 74.46699 12.05676 -74.8971 2.09094 7.93234 51.57286 -0.72054 -8.16171 -19.04098 -7.83132 -3.7545 -4.14652 54.53227 3.15592 10.62208 -24.16094 -7.7538 3.11525 3.81213
0.00153 0.0003 -0.00444 24.79203 -35.83472 -4.53221 55.85227 -0.16209 -0.52546 -13.55538 -0.02236 -1.97397 157.50615 -78.60662 -55.76469 16.73323 76.40616 1.83817 -6.61558 158.6166 74.14283 74.41938 12.0691 -74.8965 2.088 8.0189 51.37442 -0.98138 -9.68209 -19.02057 -7.70802 -3.64704 -4.0817 54.40697 3.06458 10.29186 -24.16094 -7.76077 3.15013 3.82764
0.00189 0.00035 -0.00506 24.81962 -35.76494 -4.55944 55.94455 -0.20581 -0.63636 -13.70691 -0.00524 -1.97443 157.99771 -78.61802 -55.18288 16.77764 76.3985 1.78497 -6.72073 158.59122 74.20497 74.36969 12.08061 -74.89587 2.08449 8.10333 51.17805 -1.23688 -11.17151 -19.00092 -7.5872 -3.54181 -4.01821 54.28152 2.97577 9.97215 -24.16098 -7.76712 3.18415 3.8427
0.00224 0.00039 -0.00571 24.85871 -35.69397 -4.58817 56.03705 -0.2529 -0.75988 -13.86672 0.01463 -1.97489 158.53583 -78.62895 -54.55617 16.83017 76.38927 1.72932 -6.83981 158.55914 74.26862 74.33156 12.09679 -74.89539 2.08423 8.19958 50.96965 -1.52347 -12.84023 -18.97704 -7.45213 -3.42365 -3.94699 54.15681 2.87189 9.59009 -24.16086 -7.77712 3.22329 3.86039
0.0026 0.00044 -0.00631 24.87365 -35.6256 -4.61379 56.12893 -0.29285 -0.85668 -14.00879 0.02871 -1.97534 158.97519 -78.64102 -54.02492 16.86588 76.38337 1.67874 -6.92978 158.54142 74.32898 74.26934 12.10316 -74.89461 2.07714 8.27115 50.78675 -1.74423 -14.12981 -18.96199 -7.34713 -3.33282 -3.89212 54.03067 2.80015 9.34078 -24.16105 -7.77937 3.25152 3.87248
0.00296 0.00048 -0.00681 24.82094 -35.56375 -4.63044 56.2204 -0.3132 -0.88038 -14.10396 0.02657 -1.97575 159.14535 -78.65521 -53.75186 16.85231 76.3867 1.64295 -6.9367 158.56181 74.38113 74.13758 12.08193 -74.89285 2.05098 8.27224 50.67343 -1.78454 -14.37615 -18.97226 -7.32518 -3.31739 -3.8823 53.89939 2.81448 9.44891 -24.1622 -7.76051 3.25055 3.86964
0.00333 0.00051 -0.00727 24.74428 -35.50467 -4.64403 56.31097 -0.32636 -0.87723 -14.18096 0.01866 -1.97614 159.21596 -78.67075 -53.57538 16.82239 76.39335 1.61211 -6.91489 158.59689 74.42983 73.98211 12.05098 -74.8908 2.01801 8.24902 50.58585 -1.75874 -14.2424 -18.9912 -7.33332 -3.32933 -3.88885 53.76696 2.86138 9.69116 -24.16363 -7.73386 3.23854 3.86111
0.00369 0.00054 -0.00774 24.67942 -35.4447 -4.65931 56.40114 -0.34279 -0.88622 -14.26515 0.01364 -1.97654 159.33099 -78.68631 -53.35714 16.80199 76.39842 1.57839 -6.90845 158.62603 74.47956 73.83995 12.0249 -74.88901 1.98841 8.23882 50.48669 -1.76304 -14.28435 -19.00545 -7.32732 -3.3285 -3.88778 53.63575 2.89488 9.87713 -24.16486 -7.71061 3.23108 3.85487
0.00406 0.00058 -0.00823 24.61046 -35.38305 -4.67339 56.49488 -0.3592 -0.89539 -14.35392 0.00753 -1.97696 159.44945 -78.69911 -53.13001 16.77282 76.40381 1.54719 -6.8926 158.65195 74.5315 73.68772 11.99681 -74.88679 1.95773 8.22046 50.38685 -1.76686 -14.31267 -19.02283 -7.32333 -3.32915 -3.88752 53.5013 2.92295 10.04556 -24.1664 -7.68781 3.22546 3.84977
0.00441 0.00061 -0.00867 24.54458 -35.3257 -4.68915 56.58076 -0.37397 -0.89788 -14.42868 0.00226 -1.97731 159.53698 -78.71807 -52.94438 16.75792 76.40933 1.5121 -6.88901 158.68824 74.57808 73.55001 11.9707 -74.88529 1.92755 8.21302 50.2948 -1.75615 -14.27973 -19.03578 -7.3223 -3.33319 -3.88943 53.37371 2.9695 10.2799 -24.16737 -7.66237 3.21351 3.84107
0.00467 0.00063 -0.00896 24.49135 -35.27823 -4.71109 56.64683 -0.38586 -0.88811 -14.47074 0.00126 -1.97747 159.56571 -78.75293 -52.84853 16.78747 76.41437 1.46353 -6.93093 158.74774 74.61038 73.46555 11.95158 -74.88683 1.90166 8.24427 50.21574 -1.72053 -14.16788 -19.03404 -7.32195 -3.34009 -3.89345 53.26193 3.06367 10.6838 -24.16664 -7.63041 3.18565 3.8229
0.00491 0.00064 -0.00919 24.44237 -35.23526 -4.73467 56.70468 -0.39636 -0.87262 -14.49902 0.0012 -1.97755 159.56649 -78.79405 -52.79132 16.83173 76.41946 1.41124 -6.9853 158.81749 74.63749 73.39522 11.93494 -74.88896 1.87634 8.28676 50.14408 -1.67275 -14.00793 -19.02759 -7.32359 -3.34945 -3.89908 53.15774 3.17446 11.1456 -24.16533 -7.59628 3.152 3.80146
0.00515 0.00065 -0.00944 24.39255 -35.19104 -4.75697 56.76518 -0.40757 -0.86003 -14.53265 0.00035 -1.97766 159.57849 -78.83288 -52.71708 16.86862 76.42454 1.36151 -7.03098 158.88374 74.66721 73.31355 11.91768 -74.89018 1.84981 8.32252 50.07041 -1.63126 -13.87222 -19.02349 -7.32441 -3.35755 -3.90388 53.05224 3.27462 11.56742 -24.16433 -7.56387 3.12172 3.78213
0.00542 0.00066 -0.00971 24.33724 -35.14344 -4.78141 56.83028 -0.41823 -0.84529 -14.56963 0.00083 -1.97778 159.59279 -78.86959 -52.64381 16.90792 76.42963 1.30789 -7.08854 158.94562 74.69572 73.25162 11.89792 -74.89401 1.8267 8.36467 49.99172 -1.58437 -13.71408 -19.01882 -7.32587 -3.3671 -3.9096 52.93754 3.38887 12.05144 -24.16314 -7.52808 3.08793 3.75999
0.00563 0.00067 -0.00993 24.29475 -35.10404 -4.80182 56.88379 -0.42976 -0.83396 -14.59645 -0.00115 -1.97787 159.59755 -78.91196 -52.57663 16.94578 76.43474 1.2619 -7.1246 159.01881 74.7256 73.1525 11.88414 -74.89265 1.79717 8.39599 49.92516 -1.54653 -13.59505 -19.0141 -7.32615 -3.37396 -3.91364 52.84401 3.47733 12.41814 -24.1622 -7.49893 3.06022 3.74297
0.00574 0.00066 -0.01001 24.28636 -35.08512 -4.81081 56.90792 -0.44455 -0.83394 -14.59994 -0.01021 -1.9779 159.57818 -78.97019 -52.51482 16.97727 76.43924 1.23384 -7.09921 159.12088 74.76024 72.94519 11.88587 -74.87581 1.74562 8.39928 49.88802 -1.53858 -13.60764 -19.01035 -7.32181 -3.37187 -3.91206 52.8053 3.48999 12.44397 -24.16223 -7.4887 3.05078 3.74108
0.00581 0.00065 -0.01004 24.29093 -35.07444 -4.81568 56.92054 -0.4602 -0.83756 -14.59357 -0.02171 -1.97789 159.55145 -79.03351 -52.45774 17.00666 76.44385 1.21423 -7.0518 159.23379 74.79649 72.70064 11.89364 -74.8539 1.68832 8.39066 49.8631 -1.54017 -13.66119 -19.00667 -7.31621 -3.36699 -3.90876 52.78794 3.47606 12.34963 -24.16252 -7.48528 3.0477 3.74444
0.00589 0.00064 -0.01009 24.28988 -35.06069 -4.82238 56.93804 -0.47516 -0.83932 -14.59089 -0.032 -1.97791 159.5317 -79.09334 -52.39925 17.03633 76.44885 1.19354 -7.01389 159.34163 74.83226 72.47433 11.89901 -74.835 1.63646 8.38442 49.83397 -1.53643 -13.68981 -19.00295 -7.31162 -3.36386 -3.90658 52.76197 3.47446 12.31136 -24.16263 -7.47876 3.04172 3.74527
0.00598 0.00063 -0.01015 24.28778 -35.04436 -4.82933 56.9568 -0.49135 -0.84183 -14.59093 -0.04271 -1.97791 159.49588 -79.15848 -52.33886 17.06938 76.45207 1.16152 -6.97822 159.45072 74.86687 72.24215 11.90315 -74.81318 1.57294 8.39085 49.79954 -1.53627 -13.74217 -18.99912 -7.30532 -3.35884 -3.90311 52.73172 3.47234 12.26882 -24.16298 -7.47214 3.03556 3.74656
0.00604 0.00061 -0.01018 24.29093 -35.03519 -4.83474 56.97022 -0.50518 -0.84361 -14.5833 -0.05311 -1.97793 159.49176 -79.21353 -52.28325 17.09466 76.45892 1.15458 -6.93287 159.55929 74.90422 72.01417 11.91109 -74.79615 1.53202 8.36856 49.77882 -1.53129 -13.75672 -18.99561 -7.3022 -3.357 -3.90182 52.71527 3.46486 12.20616 -24.1629 -7.46741 3.03137 3.74821
0.00603 0.0006 -0.01012 24.30522 -35.04483 -4.83697 56.97245 -0.51252 -0.84334 -14.55548 -0.06237 -1.97801 159.58074 -79.24068 -52.23752 17.09929 76.47679 1.21989 -6.86313 159.66696 74.95007 71.79817 11.92954 -74.79432 1.5576 8.26451 49.79423 -1.50911 -13.64691 -18.99296 -7.30862 -3.36522 -3.90748 52.7326 3.44827 12.11429 -24.16147 -7.46601 3.03099 3.74956
0.00598 0.00059 -0.01002 24.32435 -35.06118 -4.83775 56.96962 -0.51743 -0.84208 -14.52061 -0.07118 -1.97812 159.70124 -79.25724 -52.19672 17.09604 76.49812 1.30926 -6.7849 159.77307 74.9984 71.58919 11.95134 -74.79736 1.60564 8.13293 49.82275 -1.48212 -13.49973 -18.99068 -7.31819 -3.37662 -3.9153 52.76291 3.42726 12.00658 -24.15962 -7.46632 3.0324 3.75112
0.00595 0.00057 -0.00994 24.34135 -35.07376 -4.83912 56.96866 -0.52333 -0.84076 -14.48996 -0.07996 -1.97822 159.80517 -79.27781 -52.15473 17.09615 76.5172 1.38432 -6.71251 159.8778 75.04477 71.38269 11.9706 -74.79766 1.64164 8.01744 49.84436 -1.45845 -13.37648 -18.98826 -7.32598 -3.38618 -3.92182 52.78664 3.40872 11.90788 -24.15802 -7.46597 3.03306 3.75263
0.00592 0.00056 -0.00987 24.35851 -35.08969 -4.84066 56.96908 -0.52973 -0.84172 -14.45467 -0.08979 -1.97832 159.91875 -79.30192 -52.10809 17.09718 76.53914 1.47383 -6.63104 159.99184 75.09475 71.15113 11.9943 -74.79995 1.68514 7.88642 49.87038 -1.43035 -13.22543 -18.98568 -7.33518 -3.39734 -3.92962 52.81391 3.38734 11.79747 -24.15619 -7.46535 3.03365 3.75415
0.00588 0.00055 -0.00977 24.3763 -35.10012 -4.84153 56.96559 -0.53451 -0.83764 -14.42749 -0.09734 -1.97842 160.01924 -79.31608 -52.07273 17.09442 76.55598 1.53894 -6.56671 160.08584 75.13776 70.97373 12.00954 -74.79939 1.71845 7.78137 49.89024 -1.41016 -13.12271 -18.98356 -7.34222 -3.40592 -3.93529 52.83669 3.37115 11.70912 -24.15472 -7.46563 3.03474 3.75562
0.00579 0.00054 -0.00963 24.39484 -35.09362 -4.8411 56.95257 -0.53531 -0.81995 -14.42454 -0.09842 -1.97849 160.08082 -79.30544 -52.06311 17.08318 76.55754 1.53011 -6.55215 160.12586 75.16108 70.94591 11.99991 -74.78933 1.71784 7.7549 49.88907 -1.41336 -13.16405 -18.98248 -7.34252 -3.40678 -3.93453 52.84324 3.37056 11.68734 -24.15431 -7.4678 3.03675 3.75684
0.00568 0.00053 -0.00947 24.41376 -35.08133 -4.84004 56.93584 -0.53456 -0.7972 -14.43002 -0.09728 -1.97856 160.12726 -79.2851 -52.06541 17.0684 76.55391 1.49599 -6.55518 160.1455 75.17729 70.97223 11.98174 -74.77636 1.70626 7.75556 49.88133 -1.42457 -13.25484 -18.9819 -7.34055 -3.40492 -3.93155 52.84482 3.37546 11.68864 -24.15428 -7.4708 3.03918 3.75797
